<svg width="12" height="12" viewBox="0 0 12 12" fill="none" xmlns="http://www.w3.org/2000/svg">
<path fill-rule="evenodd" clip-rule="evenodd" d="M0.750113 5.25C0.3359 5.25 0.000113278 5.58579 0.000113283 6C0.000113278 6.41421 0.3359 6.75 0.750113 6.75L5.25011 6.75L5.25011 11.25C5.25011 11.6642 5.5859 12 6.00011 12C6.41433 12 6.75011 11.6642 6.75011 11.25L6.75011 6.75H11.2501C11.6643 6.75 12.0001 6.41421 12.0001 6C12.0001 5.58579 11.6643 5.25 11.2501 5.25H6.75011L6.75011 0.749999C6.75011 0.335786 6.41433 -4.75098e-08 6.00011 -5.63809e-07C5.5859 -4.11026e-07 5.25011 0.335786 5.25011 0.75L5.25011 5.25L0.750113 5.25Z" fill="white"/>
</svg>
