<svg width="24" height="24" viewBox="0 0 24 24" fill="none" xmlns="http://www.w3.org/2000/svg">
<path fill-rule="evenodd" clip-rule="evenodd" d="M5.17439 4.22181C4.88149 3.92891 4.40662 3.92891 4.11373 4.22181C3.82083 4.5147 3.82083 4.98957 4.11373 5.28247L10.8312 12L4.11371 18.7175C3.82082 19.0104 3.82082 19.4853 4.11371 19.7782C4.40661 20.0711 4.88148 20.0711 5.17437 19.7782L11.8919 13.0606L18.6094 19.7782C18.9023 20.071 19.3772 20.071 19.6701 19.7782C19.963 19.4853 19.963 19.0104 19.6701 18.7175L12.9526 12L19.6701 5.28248C19.963 4.98958 19.963 4.51471 19.6701 4.22181C19.3772 3.92892 18.9023 3.92892 18.6094 4.22182L11.8919 10.9393L5.17439 4.22181Z" fill="#A8A3B3"/>
</svg>
