<svg width="14" height="14" viewBox="0 0 14 14" fill="none" xmlns="http://www.w3.org/2000/svg">
<path fill-rule="evenodd" clip-rule="evenodd" d="M6.01518 2.65381C6.05164 2.14587 6.47526 1.74512 6.99249 1.74512C7.50972 1.74512 7.93335 2.14587 7.96981 2.65381H6.01518ZM4.51364 2.65381C4.5513 1.31713 5.64671 0.245117 6.99249 0.245117C8.33828 0.245117 9.43368 1.31713 9.47135 2.65381H12.595L12.5938 2.66263H12.6847C13.0989 2.66263 13.4347 2.99842 13.4347 3.41263C13.4347 3.82684 13.0989 4.16263 12.6847 4.16263H12.3822L11.1177 13.128C11.0481 13.6214 10.6258 13.9883 10.1275 13.9883H3.86366C3.36556 13.9883 2.9434 13.6218 2.87355 13.1286L1.6036 4.16263H1.30029C0.886079 4.16263 0.550293 3.82684 0.550293 3.41263C0.550293 2.99841 0.88608 2.66263 1.30029 2.66263H1.39114L1.38989 2.65381H4.51364ZM4.29783 12.4883L3.11857 4.16263L10.8674 4.16263L9.69309 12.4883H4.29783Z" fill="#7E5AB8"/>
</svg>
